<svg width="165" height="66" viewBox="0 0 165 66" fill="none" xmlns="http://www.w3.org/2000/svg">
<path d="M102.16 47L98.032 36.392H84.448L80.368 47H76L89.392 12.584H93.28L106.624 47H102.16ZM92.896 22.184C92.8 21.928 92.64 21.464 92.416 20.792C92.192 20.12 91.968 19.432 91.744 18.728C91.552 17.992 91.392 17.432 91.264 17.048C91.104 17.688 90.928 18.344 90.736 19.016C90.576 19.656 90.4 20.248 90.208 20.792C90.048 21.336 89.904 21.8 89.776 22.184L85.888 32.552H96.736L92.896 22.184ZM120.768 12.728C123.616 12.728 125.952 13.096 127.776 13.832C129.632 14.536 131.008 15.608 131.904 17.048C132.8 18.488 133.248 20.296 133.248 22.472C133.248 24.296 132.912 25.816 132.24 27.032C131.568 28.248 130.704 29.224 129.648 29.96C128.624 30.664 127.536 31.224 126.384 31.64L135.792 47H130.752L122.448 32.84H115.632V47H111.312V12.728H120.768ZM120.528 16.472H115.632V29.192H120.768C122.624 29.192 124.144 28.952 125.328 28.472C126.512 27.96 127.376 27.224 127.92 26.264C128.496 25.304 128.784 24.104 128.784 22.664C128.784 21.16 128.48 19.96 127.872 19.064C127.296 18.168 126.4 17.512 125.184 17.096C123.968 16.68 122.416 16.472 120.528 16.472ZM152.02 47H147.7V16.52H136.996V12.728H162.676V16.52H152.02V47Z" fill="black"/>
<path d="M15.936 54.68C13.6 51.288 11.792 47.816 10.512 44.264C9.264 40.68 8.64 36.504 8.64 31.736C8.64 26.936 9.264 22.76 10.512 19.208C11.792 15.624 13.6 12.152 15.936 8.792L17.952 10.088C15.84 13.192 14.192 16.408 13.008 19.736C11.856 23.064 11.28 27.064 11.28 31.736C11.28 36.376 11.872 40.376 13.056 43.736C14.24 47.096 15.872 50.296 17.952 53.336L15.936 54.68ZM32.496 16.664C38.064 16.664 39.936 20.168 39.936 24.776V31.592H49.584V20.552H43.296V17.144H58.416V20.552H53.472V47H49.584V35H39.936V36.776C39.936 38.888 38.832 39.752 37.584 39.752C35.136 39.752 31.872 36.104 31.872 33.656C31.872 32.504 32.64 31.592 34.752 31.592H36.144V25.256C36.144 21.656 35.184 19.784 32.64 19.784C30.864 19.784 29.856 20.792 29.856 22.28C29.856 24.104 31.2 25.016 34.032 25.352L33.648 28.472C29.328 28.184 26.208 25.976 26.208 22.184C26.208 18.536 28.848 16.664 32.496 16.664ZM63.798 53.336C65.878 50.296 67.51 47.096 68.694 43.736C69.878 40.376 70.47 36.376 70.47 31.736C70.47 27.064 69.878 23.064 68.694 19.736C67.542 16.408 65.91 13.192 63.798 10.088L65.814 8.792C68.15 12.152 69.942 15.624 71.19 19.208C72.47 22.76 73.11 26.936 73.11 31.736C73.11 36.504 72.47 40.68 71.19 44.264C69.942 47.816 68.15 51.288 65.814 54.68L63.798 53.336Z" fill="black"/>
</svg>

